<svg viewBox="0 0 24 24"  xmlns="http://www.w3.org/2000/svg">
<path d="M12 19.5C7.865 19.5 4.5 16.135 4.5 12C4.5 7.865 7.865 4.5 12 4.5C16.135 4.5 19.5 7.865 19.5 12C19.5 16.135 16.135 19.5 12 19.5ZM12 6C8.692 6 6 8.692 6 12C6 15.308 8.692 18 12 18C15.308 18 18 15.308 18 12C18 8.692 15.308 6 12 6Z" />
<path d="M12 3C11.586 3 11.25 2.664 11.25 2.25V0.75C11.25 0.336 11.586 0 12 0C12.414 0 12.75 0.336 12.75 0.75V2.25C12.75 2.664 12.414 3 12 3Z" />
<path d="M18.894 5.856C18.694 5.856 18.505 5.778 18.364 5.636C18.222 5.494 18.144 5.306 18.144 5.106C18.144 4.906 18.222 4.717 18.364 4.576L19.425 3.515C19.567 3.373 19.755 3.295 19.955 3.295C20.155 3.295 20.344 3.373 20.485 3.515C20.627 3.657 20.705 3.845 20.705 4.045C20.705 4.245 20.627 4.434 20.485 4.575L19.424 5.636C19.283 5.778 19.094 5.856 18.894 5.856Z" />
<path d="M21.75 12.75C21.336 12.75 21 12.414 21 12C21 11.586 21.336 11.25 21.75 11.25H23.25C23.664 11.25 24 11.586 24 12C24 12.414 23.664 12.75 23.25 12.75H21.75Z" />
<path d="M19.955 20.705C19.755 20.705 19.566 20.627 19.425 20.485L18.364 19.424C18.072 19.132 18.072 18.656 18.364 18.363C18.506 18.221 18.694 18.143 18.894 18.143C19.094 18.143 19.283 18.221 19.424 18.363L20.485 19.424C20.777 19.716 20.777 20.192 20.485 20.485C20.344 20.627 20.155 20.705 19.955 20.705Z" />
<path d="M12 24C11.586 24 11.25 23.664 11.25 23.25V21.75C11.25 21.336 11.586 21 12 21C12.414 21 12.75 21.336 12.75 21.75V23.25C12.75 23.664 12.414 24 12 24Z" />
<path d="M4.045 20.705C3.845 20.705 3.656 20.627 3.515 20.485C3.373 20.343 3.295 20.155 3.295 19.955C3.295 19.755 3.373 19.566 3.515 19.425L4.576 18.364C4.717 18.222 4.906 18.144 5.106 18.144C5.306 18.144 5.495 18.222 5.636 18.364C5.928 18.656 5.928 19.132 5.636 19.425L4.575 20.486C4.434 20.627 4.246 20.705 4.045 20.705Z" />
<path d="M0.75 12.75C0.336 12.75 0 12.414 0 12C0 11.586 0.336 11.25 0.75 11.25H2.25C2.664 11.25 3 11.586 3 12C3 12.414 2.664 12.75 2.25 12.75H0.75Z" />
<path d="M5.106 5.856C4.906 5.856 4.717 5.778 4.576 5.636L3.515 4.575C3.373 4.434 3.295 4.245 3.295 4.045C3.295 3.845 3.373 3.656 3.515 3.515C3.656 3.373 3.845 3.295 4.045 3.295C4.245 3.295 4.434 3.373 4.575 3.515L5.636 4.576C5.778 4.717 5.856 4.906 5.856 5.106C5.856 5.306 5.778 5.495 5.636 5.636C5.495 5.778 5.306 5.856 5.106 5.856Z" />
</svg>
