<svg viewBox="0 0 24 24" fill="none" xmlns="http://www.w3.org/2000/svg">
    <path d="M7.50066 16.501C6.82666 16.501 6.15466 16.348 5.55166 16.059C3.31666 14.987 2.36966 12.298 3.44166 10.062C4.18466 8.512 5.77866 7.51 7.50066 7.51C7.87066 7.51 8.23666 7.555 8.59366 7.646C9.49566 4.892 12.0797 3 15.0077 3C16.8187 3.002 18.5127 3.706 19.7867 4.983C21.0597 6.26 21.7607 7.955 21.7577 9.758C21.7537 13.476 18.7257 16.5 15.0077 16.5L7.50066 16.501ZM15.0187 15.001C17.8987 15.001 20.2547 12.648 20.2577 9.757C20.2597 8.355 19.7147 7.036 18.7247 6.043C17.7347 5.05 16.4167 4.503 15.0137 4.501C12.4897 4.501 10.3207 6.296 9.84966 8.769C9.84966 8.769 9.84666 8.785 9.84466 8.791C9.78366 9.096 9.75066 9.425 9.74966 9.752C9.74966 9.966 9.76366 10.185 9.78966 10.399C9.79466 10.439 9.79666 10.47 9.79666 10.501C9.79666 10.878 9.51466 11.198 9.14066 11.245C9.10866 11.249 9.07766 11.251 9.04666 11.251C8.66966 11.251 8.35066 10.969 8.30266 10.595C8.26866 10.316 8.25066 10.032 8.25066 9.751C8.25166 9.54 8.26266 9.329 8.28366 9.12C8.02466 9.048 7.76266 9.011 7.50066 9.011C6.35166 9.011 5.28966 9.678 4.79466 10.711C4.08066 12.2 4.71166 13.992 6.20066 14.707C6.58166 14.89 7.03366 14.991 7.50866 15.001H15.0037H15.0187Z"/>
    <path fill-rule="evenodd" clip-rule="evenodd" d="M6.53033 17.9697C6.82322 18.2626 6.82322 18.7374 6.53033 19.0303L5.53033 20.0303C5.23744 20.3232 4.76256 20.3232 4.46967 20.0303C4.17678 19.7374 4.17678 19.2626 4.46967 18.9697L5.46967 17.9697C5.76256 17.6768 6.23744 17.6768 6.53033 17.9697ZM11.5303 17.9697C11.8232 18.2626 11.8232 18.7374 11.5303 19.0303L10.5303 20.0303C10.2374 20.3232 9.76256 20.3232 9.46967 20.0303C9.17678 19.7374 9.17678 19.2626 9.46967 18.9697L10.4697 17.9697C10.7626 17.6768 11.2374 17.6768 11.5303 17.9697ZM16.5303 17.9697C16.8232 18.2626 16.8232 18.7374 16.5303 19.0303L15.5303 20.0303C15.2374 20.3232 14.7626 20.3232 14.4697 20.0303C14.1768 19.7374 14.1768 19.2626 14.4697 18.9697L15.4697 17.9697C15.7626 17.6768 16.2374 17.6768 16.5303 17.9697Z"/>
</svg>
