<svg viewBox="0 0 24 24" xmlns="http://www.w3.org/2000/svg">
    <g>
        <path d="M9.74999 21.75C9.07599 21.75 8.40399 21.597 7.80099 21.308C5.56599 20.236 4.61899 17.547 5.69099 15.311C6.43399 13.761 8.02799 12.759 9.74999 12.759C10.12 12.759 10.486 12.804 10.843 12.895C11.745 10.141 14.329 8.24902 17.257 8.24902C19.068 8.25102 20.762 8.95502 22.036 10.232C23.309 11.509 24.01 13.204 24.007 15.007C24.003 18.725 20.975 21.749 17.257 21.749L9.74999 21.75ZM17.268 20.25C20.148 20.25 22.504 17.897 22.507 15.006C22.509 13.604 21.964 12.285 20.974 11.292C19.984 10.299 18.666 9.75202 17.263 9.75002C14.739 9.75002 12.57 11.545 12.099 14.018C12.099 14.018 12.096 14.034 12.094 14.04C12.033 14.345 12 14.674 11.999 15.001C11.999 15.215 12.013 15.434 12.039 15.648C12.044 15.688 12.046 15.719 12.046 15.75C12.046 16.127 11.764 16.447 11.39 16.494C11.358 16.498 11.327 16.5 11.296 16.5C10.919 16.5 10.6 16.218 10.552 15.844C10.518 15.565 10.5 15.281 10.5 15C10.501 14.789 10.512 14.578 10.533 14.369C10.274 14.297 10.012 14.26 9.74999 14.26C8.60099 14.26 7.53899 14.927 7.04399 15.96C6.32999 17.449 6.96099 19.241 8.44999 19.956C8.83099 20.139 9.28299 20.24 9.75799 20.25H17.253H17.268Z"/>
        <path class="icon--color-accent" d="M4.5 13.734C4.245 13.734 4.011 13.607 3.872 13.394C3.449 12.747 3.175 12.012 3.069 11.25H0.75C0.336 11.25 0 10.914 0 10.5C0 10.086 0.336 9.75 0.75 9.75H3.077C3.092 9.643 3.109 9.543 3.13 9.445C3.287 8.695 3.609 7.986 4.066 7.376L2.417 5.727C2.275 5.586 2.197 5.397 2.197 5.197C2.197 4.997 2.275 4.808 2.417 4.667C2.558 4.525 2.747 4.447 2.947 4.447C3.147 4.447 3.336 4.525 3.477 4.667L5.128 6.318C5.22 6.248 5.308 6.186 5.396 6.128C6.033 5.712 6.754 5.439 7.5 5.328V3C7.5 2.586 7.836 2.25 8.25 2.25C8.664 2.25 9 2.586 9 3V5.327C9.122 5.343 9.235 5.362 9.345 5.385C10.085 5.54 10.785 5.855 11.389 6.301L13.023 4.667C13.165 4.525 13.353 4.447 13.553 4.447C13.753 4.447 13.942 4.525 14.083 4.667C14.225 4.808 14.303 4.997 14.303 5.197C14.303 5.397 14.225 5.586 14.083 5.727L12.453 7.357C12.531 7.457 12.599 7.554 12.663 7.651C12.709 7.722 12.754 7.794 12.797 7.868C12.898 8.041 12.926 8.243 12.875 8.437C12.824 8.631 12.701 8.793 12.528 8.894C12.414 8.961 12.283 8.997 12.15 8.997C11.884 8.997 11.636 8.855 11.502 8.626C11.471 8.574 11.44 8.522 11.406 8.471C10.858 7.632 10.017 7.057 9.036 6.852C8.78 6.799 8.519 6.772 8.259 6.772C7.535 6.772 6.829 6.983 6.216 7.384C5.377 7.932 4.802 8.773 4.597 9.754C4.391 10.734 4.58 11.736 5.128 12.575C5.237 12.743 5.275 12.943 5.234 13.139C5.193 13.335 5.078 13.503 4.91 13.613C4.788 13.692 4.646 13.734 4.5 13.734V13.734Z"/>
    </g>
</svg>
